<svg width="27" height="27" viewBox="0 0 27 27" fill="none" xmlns="http://www.w3.org/2000/svg">
<path id="Vector" d="M15.7625 2.3673L15.7631 2.36769L22.9637 7.59223C23.4906 7.97472 24.0131 8.62247 24.405 9.40093C24.7963 10.1781 25.0139 10.9996 25.0139 11.6835V20.4734C25.0139 23.2616 22.8399 25.463 20.2383 25.463H6.76175C4.16289 25.463 1.98608 23.2515 1.98608 20.4604V11.5149C1.98608 10.8823 2.18261 10.1027 2.53951 9.351C2.8967 8.59868 3.37319 7.96133 3.85274 7.57342L3.85296 7.57325L10.1134 2.50635C10.1139 2.506 10.1143 2.50566 10.1147 2.50531C11.6517 1.27141 14.1662 1.20741 15.7625 2.3673ZM13.5 23.2495C14.5988 23.2495 15.4376 22.3264 15.4376 21.2772V17.3878C15.4376 16.3386 14.5988 15.4155 13.5 15.4155C12.4012 15.4155 11.5624 16.3386 11.5624 17.3878V21.2772C11.5624 22.3264 12.4012 23.2495 13.5 23.2495Z" fill="#2D3250" stroke="#E0802E" stroke-width="2"/>
</svg>
