<svg width="25" height="25" viewBox="0 0 25 25" fill="none" xmlns="http://www.w3.org/2000/svg">
<g id="icon-cart" clip-path="url(#clip0_156_938)">
<path id="Vector" d="M18.8055 20.5188H6.09954C5.84325 20.5188 5.62744 20.303 5.62744 20.0332C5.62744 18.4011 6.89535 17.0928 8.45999 17.0928H16.2427C21.3818 17.0928 22.1642 13.8556 23.1218 9.14818C23.3916 7.78586 23.5265 7.11145 23.2027 6.65284C22.879 6.19424 22.245 6.19424 20.9772 6.19424H5.62744" stroke="white" stroke-width="1.5" stroke-linecap="round" stroke-linejoin="round"/>
<path id="Vector_2" d="M7.90695 17.0928L4.91255 2.78165C4.65627 1.75655 3.73907 1.04166 2.68697 1.04166H1.60791" stroke="white" stroke-width="1.5" stroke-linecap="round"/>
<path id="Vector_3" d="M10.4969 23.9583C11.443 23.9583 12.21 23.1913 12.21 22.2453C12.21 21.2993 11.443 20.5323 10.4969 20.5323C9.55087 20.5323 8.78394 21.2993 8.78394 22.2453C8.78394 23.1913 9.55087 23.9583 10.4969 23.9583Z" stroke="white" stroke-width="1.5"/>
<path id="Vector_4" d="M18.8327 23.9583C19.7787 23.9583 20.5457 23.1913 20.5457 22.2453C20.5457 21.2993 19.7787 20.5323 18.8327 20.5323C17.8866 20.5323 17.1196 21.2993 17.1196 22.2453C17.1196 23.1913 17.8866 23.9583 18.8327 23.9583Z" stroke="white" stroke-width="1.5"/>
</g>
<defs>
<clipPath id="clip0_156_938">
<rect width="25" height="25" fill="white"/>
</clipPath>
</defs>
</svg>
