<svg width="18" height="21" viewBox="0 0 18 21" fill="none" xmlns="http://www.w3.org/2000/svg">
<g id="Group">
<path id="Vector" d="M8.8547 18.3916C6.50841 18.3916 4.16215 18.0495 1.93673 17.3652C1.09087 17.0971 0.4464 16.5515 0.164446 15.8396C-0.127578 15.1276 -0.0268797 14.3416 0.436331 13.6389L1.59436 11.8728C1.83603 11.503 2.05757 10.7633 2.05757 10.3287V7.65646C2.05757 4.21678 5.10871 1.4151 8.8547 1.4151C12.6007 1.4151 15.6518 4.21678 15.6518 7.65646V10.3287C15.6518 10.754 15.8733 11.503 16.115 11.8821L17.263 13.6389C17.696 14.3047 17.7765 15.1091 17.4845 15.8396C17.1925 16.57 16.5581 17.1248 15.7626 17.3652C13.5472 18.0495 11.201 18.3916 8.8547 18.3916ZM8.8547 2.80207C5.9445 2.80207 3.56803 4.97499 3.56803 7.65646V10.3287C3.56803 11.0037 3.26594 12.0023 2.89336 12.5848L1.73533 14.3509C1.5138 14.693 1.45338 15.0536 1.58429 15.3588C1.70512 15.6731 2.00722 15.9135 2.42008 16.043C6.62925 17.3375 11.0902 17.3375 15.2994 16.043C15.6619 15.932 15.9438 15.6824 16.0747 15.3495C16.2056 15.0166 16.1754 14.656 15.974 14.3509L14.816 12.5848C14.4334 11.9838 14.1413 10.9944 14.1413 10.3194V7.65646C14.1413 4.97499 11.7749 2.80207 8.8547 2.80207Z" fill="white"/>
<path id="Vector_2" d="M10.7273 3.05202C10.6568 3.05202 10.5864 3.04278 10.5159 3.02429C10.2238 2.95031 9.94189 2.89483 9.67001 2.85785C8.81407 2.75614 7.98835 2.81162 7.21298 3.02429C6.93102 3.1075 6.62896 3.02429 6.43763 2.83011C6.24631 2.63593 6.18589 2.35854 6.29666 2.10889C6.70952 1.13801 7.71647 0.5 8.86442 0.5C10.0124 0.5 11.0194 1.12876 11.4322 2.10889C11.5329 2.35854 11.4826 2.63593 11.2912 2.83011C11.1402 2.97805 10.9287 3.05202 10.7273 3.05202Z" fill="white"/>
<path id="Vector_3" d="M8.85426 20.5C7.85736 20.5 6.89066 20.1302 6.1858 19.4829C5.48092 18.8357 5.07812 17.948 5.07812 17.0326H6.58859C6.58859 17.5781 6.83024 18.1144 7.25317 18.5028C7.6761 18.8911 8.26015 19.113 8.85426 19.113C10.1029 19.113 11.12 18.1792 11.12 17.0326H12.6304C12.6304 18.9466 10.9387 20.5 8.85426 20.5Z" fill="white"/>
</g>
</svg>
