<svg width="27" height="25" viewBox="0 0 27 25" fill="none" xmlns="http://www.w3.org/2000/svg">
<g id="Group">
<path id="Vector" d="M13.4879 17.0961C10.9488 17.0961 8.88818 15.0354 8.88818 12.4964C8.88818 9.95737 10.9488 7.89671 13.4879 7.89671C16.0269 7.89671 18.0875 9.95737 18.0875 12.4964C18.0875 15.0354 16.0269 17.0961 13.4879 17.0961ZM13.4879 9.73658C11.9669 9.73658 10.7281 10.9754 10.7281 12.4964C10.7281 14.0174 11.9669 15.2562 13.4879 15.2562C15.0088 15.2562 16.2477 14.0174 16.2477 12.4964C16.2477 10.9754 15.0088 9.73658 13.4879 9.73658Z" fill="white"/>
<path id="Vector_2" d="M17.4251 24.995C17.1675 24.995 16.9099 24.9582 16.6523 24.8969C15.8918 24.6884 15.254 24.21 14.8492 23.5354L14.7021 23.2901C13.9784 22.0389 12.9848 22.0389 12.2612 23.2901L12.1262 23.5231C11.7215 24.21 11.0836 24.7006 10.3232 24.8969C9.55042 25.1054 8.75314 24.995 8.07852 24.5902L5.9688 23.3759C5.22059 22.9466 4.68089 22.2475 4.44784 21.4011C4.22706 20.5548 4.33745 19.6839 4.76676 18.9357C5.12246 18.3101 5.22059 17.7459 5.01207 17.3902C4.80355 17.0345 4.27612 16.826 3.55244 16.826C1.76163 16.826 0.302002 15.3663 0.302002 13.5755V11.4167C0.302002 9.62594 1.76163 8.16631 3.55244 8.16631C4.27612 8.16631 4.80355 7.95779 5.01207 7.60208C5.22059 7.24638 5.13473 6.68215 4.76676 6.05659C4.33745 5.30838 4.22706 4.42524 4.44784 3.59117C4.66863 2.74483 5.20832 2.04567 5.9688 1.61637L8.09079 0.402057C9.47682 -0.419753 11.3044 0.0586138 12.1385 1.46918L12.2857 1.7145C13.0094 2.96561 14.0029 2.96561 14.7266 1.7145L14.8615 1.48145C15.6956 0.0586138 17.5232 -0.419753 18.9215 0.414322L21.0312 1.62864C21.7794 2.05794 22.3191 2.75709 22.5522 3.60343C22.773 4.44977 22.6626 5.32064 22.2333 6.06886C21.8776 6.69442 21.7794 7.25864 21.9879 7.61435C22.1965 7.97006 22.7239 8.17858 23.4476 8.17858C25.2384 8.17858 26.698 9.63821 26.698 11.429V13.5878C26.698 15.3786 25.2384 16.8382 23.4476 16.8382C22.7239 16.8382 22.1965 17.0468 21.9879 17.4025C21.7794 17.7582 21.8653 18.3224 22.2333 18.948C22.6626 19.6962 22.7852 20.5793 22.5522 21.4134C22.3314 22.2597 21.7917 22.9589 21.0312 23.3882L18.9092 24.6025C18.4431 24.8601 17.9402 24.995 17.4251 24.995ZM13.4877 20.4566C14.5794 20.4566 15.5975 21.1435 16.2966 22.3579L16.4315 22.5909C16.5787 22.8485 16.824 23.0325 17.1184 23.1061C17.4128 23.1797 17.7072 23.1429 17.9525 22.9957L20.0745 21.7691C20.3934 21.5851 20.6387 21.2785 20.7368 20.9105C20.835 20.5425 20.7859 20.1623 20.6019 19.8434C19.9028 18.6413 19.8169 17.4025 20.3566 16.458C20.8963 15.5135 22.0125 14.9738 23.4108 14.9738C24.1958 14.9738 24.8213 14.3483 24.8213 13.5633V11.4045C24.8213 10.6317 24.1958 9.99392 23.4108 9.99392C22.0125 9.99392 20.8963 9.45422 20.3566 8.50975C19.8169 7.56529 19.9028 6.32644 20.6019 5.12439C20.7859 4.80548 20.835 4.42524 20.7368 4.05727C20.6387 3.68929 20.4057 3.39491 20.0867 3.19866L17.9648 1.98435C17.4373 1.66543 16.7382 1.84942 16.4193 2.38912L16.2843 2.62217C15.5852 3.83648 14.5671 4.52337 13.4755 4.52337C12.3838 4.52337 11.3658 3.83648 10.6666 2.62217L10.5317 2.37685C10.225 1.86169 9.53815 1.6777 9.01073 1.98435L6.88874 3.21093C6.56983 3.39491 6.32451 3.70156 6.22639 4.06953C6.12826 4.43751 6.17732 4.81775 6.36131 5.13666C7.06046 6.33871 7.14632 7.57755 6.60663 8.52202C6.06693 9.46649 4.95074 10.0062 3.55244 10.0062C2.76743 10.0062 2.14187 10.6317 2.14187 11.4167V13.5755C2.14187 14.3483 2.76743 14.9861 3.55244 14.9861C4.95074 14.9861 6.06693 15.5258 6.60663 16.4703C7.14632 17.4147 7.06046 18.6536 6.36131 19.8556C6.17732 20.1745 6.12826 20.5548 6.22639 20.9228C6.32451 21.2907 6.55756 21.5851 6.87647 21.7814L8.99846 22.9957C9.25604 23.1551 9.56269 23.1919 9.8448 23.1183C10.1392 23.0447 10.3845 22.8485 10.544 22.5909L10.6789 22.3579C11.378 21.1558 12.3961 20.4566 13.4877 20.4566Z" fill="white"/>
</g>
</svg>
